<mxfile host="Electron" modified="2024-05-11T13:37:29.802Z" agent="Mozilla/5.0 (Macintosh; Intel Mac OS X 10_15_7) AppleWebKit/537.36 (KHTML, like Gecko) draw.io/24.2.5 Chrome/120.0.6099.109 Electron/28.1.0 Safari/537.36" etag="WdJqf9COCDLCoVehWlGB" version="24.2.5" type="device">
  <diagram name="G1 GC Heap" id="bUMF98sUaSZOF8_wNnfO">
    <mxGraphModel dx="1234" dy="1214" grid="1" gridSize="10" guides="1" tooltips="1" connect="1" arrows="1" fold="1" page="1" pageScale="1" pageWidth="850" pageHeight="1100" math="0" shadow="0">
      <root>
        <mxCell id="0" />
        <mxCell id="1" parent="0" />
        <mxCell id="uFG7PCId-pUoOMfq0wAy-1" value="O" style="whiteSpace=wrap;html=1;aspect=fixed;fillColor=#048DFF;strokeWidth=3;fontSize=32;fontFamily=JetBrains Mono;" vertex="1" parent="1">
          <mxGeometry x="120" y="240" width="80" height="80" as="geometry" />
        </mxCell>
        <mxCell id="uFG7PCId-pUoOMfq0wAy-2" value="" style="whiteSpace=wrap;html=1;aspect=fixed;strokeWidth=3;fillColor=#9c9c9c;fontSize=32;fontFamily=JetBrains Mono;" vertex="1" parent="1">
          <mxGeometry x="200" y="240" width="80" height="80" as="geometry" />
        </mxCell>
        <mxCell id="uFG7PCId-pUoOMfq0wAy-3" value="E" style="whiteSpace=wrap;html=1;aspect=fixed;strokeWidth=3;fillColor=#00ff07;fontSize=32;fontFamily=JetBrains Mono;" vertex="1" parent="1">
          <mxGeometry x="280" y="240" width="80" height="80" as="geometry" />
        </mxCell>
        <mxCell id="uFG7PCId-pUoOMfq0wAy-4" value="O" style="whiteSpace=wrap;html=1;aspect=fixed;fillColor=#048DFF;strokeWidth=3;fontSize=32;fontFamily=JetBrains Mono;" vertex="1" parent="1">
          <mxGeometry x="360" y="240" width="80" height="80" as="geometry" />
        </mxCell>
        <mxCell id="uFG7PCId-pUoOMfq0wAy-5" value="E" style="whiteSpace=wrap;html=1;aspect=fixed;strokeWidth=3;fillColor=#00ff07;fontSize=32;fontFamily=JetBrains Mono;" vertex="1" parent="1">
          <mxGeometry x="440" y="240" width="80" height="80" as="geometry" />
        </mxCell>
        <mxCell id="uFG7PCId-pUoOMfq0wAy-6" value="O" style="whiteSpace=wrap;html=1;aspect=fixed;fillColor=#048DFF;strokeWidth=3;fontSize=32;fontFamily=JetBrains Mono;" vertex="1" parent="1">
          <mxGeometry x="520" y="240" width="80" height="80" as="geometry" />
        </mxCell>
        <mxCell id="uFG7PCId-pUoOMfq0wAy-7" value="" style="whiteSpace=wrap;html=1;aspect=fixed;strokeWidth=3;fillColor=#9c9c9c;fontSize=32;fontFamily=JetBrains Mono;" vertex="1" parent="1">
          <mxGeometry x="600" y="240" width="80" height="80" as="geometry" />
        </mxCell>
        <mxCell id="uFG7PCId-pUoOMfq0wAy-9" value="" style="whiteSpace=wrap;html=1;aspect=fixed;strokeWidth=3;fillColor=#9c9c9c;fontSize=32;fontFamily=JetBrains Mono;" vertex="1" parent="1">
          <mxGeometry x="120" y="320" width="80" height="80" as="geometry" />
        </mxCell>
        <mxCell id="uFG7PCId-pUoOMfq0wAy-10" value="E" style="whiteSpace=wrap;html=1;aspect=fixed;strokeWidth=3;fillColor=#00ff07;fontSize=32;fontFamily=JetBrains Mono;" vertex="1" parent="1">
          <mxGeometry x="200" y="320" width="80" height="80" as="geometry" />
        </mxCell>
        <mxCell id="uFG7PCId-pUoOMfq0wAy-11" value="O" style="whiteSpace=wrap;html=1;aspect=fixed;fillColor=#048DFF;strokeWidth=3;fontSize=32;fontFamily=JetBrains Mono;" vertex="1" parent="1">
          <mxGeometry x="280" y="320" width="80" height="80" as="geometry" />
        </mxCell>
        <mxCell id="uFG7PCId-pUoOMfq0wAy-12" value="S&lt;font style=&quot;font-size: 16px;&quot;&gt;1&lt;/font&gt;" style="whiteSpace=wrap;html=1;aspect=fixed;strokeWidth=3;fillColor=#ffff04;fontSize=32;fontFamily=JetBrains Mono;" vertex="1" parent="1">
          <mxGeometry x="360" y="320" width="80" height="80" as="geometry" />
        </mxCell>
        <mxCell id="uFG7PCId-pUoOMfq0wAy-13" value="O" style="whiteSpace=wrap;html=1;aspect=fixed;fillColor=#048DFF;strokeWidth=3;fontSize=32;fontFamily=JetBrains Mono;" vertex="1" parent="1">
          <mxGeometry x="440" y="320" width="80" height="80" as="geometry" />
        </mxCell>
        <mxCell id="uFG7PCId-pUoOMfq0wAy-14" value="" style="whiteSpace=wrap;html=1;aspect=fixed;strokeWidth=3;fillColor=#9c9c9c;fontSize=32;fontFamily=JetBrains Mono;" vertex="1" parent="1">
          <mxGeometry x="520" y="320" width="80" height="80" as="geometry" />
        </mxCell>
        <mxCell id="uFG7PCId-pUoOMfq0wAy-15" value="" style="whiteSpace=wrap;html=1;aspect=fixed;strokeWidth=3;fillColor=#9c9c9c;fontSize=32;fontFamily=JetBrains Mono;" vertex="1" parent="1">
          <mxGeometry x="600" y="320" width="80" height="80" as="geometry" />
        </mxCell>
        <mxCell id="uFG7PCId-pUoOMfq0wAy-16" value="H" style="whiteSpace=wrap;html=1;aspect=fixed;strokeWidth=3;fillColor=#ff8e2f;fontSize=32;fontFamily=JetBrains Mono;" vertex="1" parent="1">
          <mxGeometry x="120" y="400" width="80" height="80" as="geometry" />
        </mxCell>
        <mxCell id="uFG7PCId-pUoOMfq0wAy-17" value="H" style="whiteSpace=wrap;html=1;aspect=fixed;strokeWidth=3;fillColor=#ff8e2f;fontSize=32;fontFamily=JetBrains Mono;" vertex="1" parent="1">
          <mxGeometry x="200" y="400" width="80" height="80" as="geometry" />
        </mxCell>
        <mxCell id="uFG7PCId-pUoOMfq0wAy-18" value="E" style="whiteSpace=wrap;html=1;aspect=fixed;strokeWidth=3;fillColor=#00ff07;fontSize=32;fontFamily=JetBrains Mono;" vertex="1" parent="1">
          <mxGeometry x="280" y="400" width="80" height="80" as="geometry" />
        </mxCell>
        <mxCell id="uFG7PCId-pUoOMfq0wAy-19" value="" style="whiteSpace=wrap;html=1;aspect=fixed;strokeWidth=3;fillColor=#9c9c9c;fontSize=32;fontFamily=JetBrains Mono;" vertex="1" parent="1">
          <mxGeometry x="360" y="400" width="80" height="80" as="geometry" />
        </mxCell>
        <mxCell id="uFG7PCId-pUoOMfq0wAy-20" value="" style="whiteSpace=wrap;html=1;aspect=fixed;strokeWidth=3;fillColor=#9c9c9c;fontSize=32;fontFamily=JetBrains Mono;" vertex="1" parent="1">
          <mxGeometry x="440" y="400" width="80" height="80" as="geometry" />
        </mxCell>
        <mxCell id="uFG7PCId-pUoOMfq0wAy-21" value="" style="whiteSpace=wrap;html=1;aspect=fixed;strokeWidth=3;fillColor=#9c9c9c;fontSize=32;fontFamily=JetBrains Mono;" vertex="1" parent="1">
          <mxGeometry x="520" y="400" width="80" height="80" as="geometry" />
        </mxCell>
        <mxCell id="uFG7PCId-pUoOMfq0wAy-22" value="O" style="whiteSpace=wrap;html=1;aspect=fixed;fillColor=#048dff;strokeWidth=3;fontSize=32;fontFamily=JetBrains Mono;" vertex="1" parent="1">
          <mxGeometry x="600" y="400" width="80" height="80" as="geometry" />
        </mxCell>
        <mxCell id="uFG7PCId-pUoOMfq0wAy-23" value="O" style="whiteSpace=wrap;html=1;aspect=fixed;fillColor=#048dff;strokeWidth=3;fontSize=32;fontFamily=JetBrains Mono;" vertex="1" parent="1">
          <mxGeometry x="120" y="480" width="80" height="80" as="geometry" />
        </mxCell>
        <mxCell id="uFG7PCId-pUoOMfq0wAy-24" value="S&lt;span style=&quot;font-size: 16px;&quot;&gt;1&lt;/span&gt;" style="whiteSpace=wrap;html=1;aspect=fixed;strokeWidth=3;fillColor=#ffff04;fontSize=32;fontFamily=JetBrains Mono;" vertex="1" parent="1">
          <mxGeometry x="200" y="480" width="80" height="80" as="geometry" />
        </mxCell>
        <mxCell id="uFG7PCId-pUoOMfq0wAy-25" value="O" style="whiteSpace=wrap;html=1;aspect=fixed;fillColor=#048dff;strokeWidth=3;fontSize=32;fontFamily=JetBrains Mono;" vertex="1" parent="1">
          <mxGeometry x="280" y="480" width="80" height="80" as="geometry" />
        </mxCell>
        <mxCell id="uFG7PCId-pUoOMfq0wAy-26" value="S&lt;span style=&quot;font-size: 16px;&quot;&gt;2&lt;/span&gt;" style="whiteSpace=wrap;html=1;aspect=fixed;strokeWidth=3;fillColor=#ffff04;fontSize=32;fontFamily=JetBrains Mono;" vertex="1" parent="1">
          <mxGeometry x="360" y="480" width="80" height="80" as="geometry" />
        </mxCell>
        <mxCell id="uFG7PCId-pUoOMfq0wAy-27" value="O" style="whiteSpace=wrap;html=1;aspect=fixed;fillColor=#048dff;strokeWidth=3;fontSize=32;fontFamily=JetBrains Mono;" vertex="1" parent="1">
          <mxGeometry x="440" y="480" width="80" height="80" as="geometry" />
        </mxCell>
        <mxCell id="uFG7PCId-pUoOMfq0wAy-28" value="O" style="whiteSpace=wrap;html=1;aspect=fixed;fillColor=#048dff;strokeWidth=3;fontSize=32;fontFamily=JetBrains Mono;" vertex="1" parent="1">
          <mxGeometry x="520" y="480" width="80" height="80" as="geometry" />
        </mxCell>
        <mxCell id="uFG7PCId-pUoOMfq0wAy-29" value="" style="whiteSpace=wrap;html=1;aspect=fixed;strokeWidth=3;fillColor=#9c9c9c;fontSize=32;fontFamily=JetBrains Mono;" vertex="1" parent="1">
          <mxGeometry x="600" y="480" width="80" height="80" as="geometry" />
        </mxCell>
        <mxCell id="uFG7PCId-pUoOMfq0wAy-30" value="E" style="whiteSpace=wrap;html=1;aspect=fixed;strokeWidth=3;fillColor=#00ff07;fontSize=32;fontFamily=JetBrains Mono;" vertex="1" parent="1">
          <mxGeometry x="120" y="560" width="80" height="80" as="geometry" />
        </mxCell>
        <mxCell id="uFG7PCId-pUoOMfq0wAy-31" value="" style="whiteSpace=wrap;html=1;aspect=fixed;strokeWidth=3;fillColor=#9c9c9c;fontSize=32;fontFamily=JetBrains Mono;" vertex="1" parent="1">
          <mxGeometry x="200" y="560" width="80" height="80" as="geometry" />
        </mxCell>
        <mxCell id="uFG7PCId-pUoOMfq0wAy-32" value="E" style="whiteSpace=wrap;html=1;aspect=fixed;strokeWidth=3;fillColor=#00ff07;fontSize=32;fontFamily=JetBrains Mono;" vertex="1" parent="1">
          <mxGeometry x="280" y="560" width="80" height="80" as="geometry" />
        </mxCell>
        <mxCell id="uFG7PCId-pUoOMfq0wAy-33" value="" style="whiteSpace=wrap;html=1;aspect=fixed;strokeWidth=3;fillColor=#9c9c9c;fontSize=32;fontFamily=JetBrains Mono;" vertex="1" parent="1">
          <mxGeometry x="360" y="560" width="80" height="80" as="geometry" />
        </mxCell>
        <mxCell id="uFG7PCId-pUoOMfq0wAy-34" value="" style="whiteSpace=wrap;html=1;aspect=fixed;strokeWidth=3;fillColor=#9c9c9c;fontSize=32;fontFamily=JetBrains Mono;" vertex="1" parent="1">
          <mxGeometry x="440" y="560" width="80" height="80" as="geometry" />
        </mxCell>
        <mxCell id="uFG7PCId-pUoOMfq0wAy-35" value="E" style="whiteSpace=wrap;html=1;aspect=fixed;strokeWidth=3;fillColor=#00ff07;fontSize=32;fontFamily=JetBrains Mono;" vertex="1" parent="1">
          <mxGeometry x="520" y="560" width="80" height="80" as="geometry" />
        </mxCell>
        <mxCell id="uFG7PCId-pUoOMfq0wAy-36" value="" style="whiteSpace=wrap;html=1;aspect=fixed;strokeWidth=3;fillColor=#9c9c9c;fontSize=32;fontFamily=JetBrains Mono;" vertex="1" parent="1">
          <mxGeometry x="600" y="560" width="80" height="80" as="geometry" />
        </mxCell>
        <mxCell id="uFG7PCId-pUoOMfq0wAy-37" value="" style="whiteSpace=wrap;html=1;aspect=fixed;strokeWidth=3;fillColor=#9c9c9c;fontSize=32;fontFamily=JetBrains Mono;" vertex="1" parent="1">
          <mxGeometry x="120" y="640" width="80" height="80" as="geometry" />
        </mxCell>
        <mxCell id="uFG7PCId-pUoOMfq0wAy-38" value="S&lt;span style=&quot;font-size: 16px;&quot;&gt;2&lt;/span&gt;" style="whiteSpace=wrap;html=1;aspect=fixed;strokeWidth=3;fillColor=#ffff04;fontSize=32;fontFamily=JetBrains Mono;" vertex="1" parent="1">
          <mxGeometry x="200" y="640" width="80" height="80" as="geometry" />
        </mxCell>
        <mxCell id="uFG7PCId-pUoOMfq0wAy-39" value="" style="whiteSpace=wrap;html=1;aspect=fixed;strokeWidth=3;fillColor=#9c9c9c;fontSize=32;fontFamily=JetBrains Mono;" vertex="1" parent="1">
          <mxGeometry x="280" y="640" width="80" height="80" as="geometry" />
        </mxCell>
        <mxCell id="uFG7PCId-pUoOMfq0wAy-40" value="O" style="whiteSpace=wrap;html=1;aspect=fixed;fillColor=#048dff;strokeWidth=3;fontSize=32;fontFamily=JetBrains Mono;" vertex="1" parent="1">
          <mxGeometry x="360" y="640" width="80" height="80" as="geometry" />
        </mxCell>
        <mxCell id="uFG7PCId-pUoOMfq0wAy-41" value="" style="whiteSpace=wrap;html=1;aspect=fixed;strokeWidth=3;fillColor=#9c9c9c;fontSize=32;fontFamily=JetBrains Mono;" vertex="1" parent="1">
          <mxGeometry x="440" y="640" width="80" height="80" as="geometry" />
        </mxCell>
        <mxCell id="uFG7PCId-pUoOMfq0wAy-42" value="H" style="whiteSpace=wrap;html=1;aspect=fixed;strokeWidth=3;fillColor=#ff8e2f;fontSize=32;fontFamily=JetBrains Mono;" vertex="1" parent="1">
          <mxGeometry x="520" y="640" width="80" height="80" as="geometry" />
        </mxCell>
        <mxCell id="uFG7PCId-pUoOMfq0wAy-43" value="H" style="whiteSpace=wrap;html=1;aspect=fixed;strokeWidth=3;fillColor=#ff8e2f;fontSize=32;fontFamily=JetBrains Mono;" vertex="1" parent="1">
          <mxGeometry x="600" y="640" width="80" height="80" as="geometry" />
        </mxCell>
        <mxCell id="uFG7PCId-pUoOMfq0wAy-44" value="E" style="whiteSpace=wrap;html=1;aspect=fixed;strokeWidth=3;fillColor=#00ff07;fontSize=32;fontFamily=JetBrains Mono;" vertex="1" parent="1">
          <mxGeometry x="120" y="720" width="80" height="80" as="geometry" />
        </mxCell>
        <mxCell id="uFG7PCId-pUoOMfq0wAy-45" value="" style="whiteSpace=wrap;html=1;aspect=fixed;strokeWidth=3;fillColor=#9c9c9c;fontSize=32;fontFamily=JetBrains Mono;" vertex="1" parent="1">
          <mxGeometry x="200" y="720" width="80" height="80" as="geometry" />
        </mxCell>
        <mxCell id="uFG7PCId-pUoOMfq0wAy-46" value="" style="whiteSpace=wrap;html=1;aspect=fixed;strokeWidth=3;fillColor=#9c9c9c;fontSize=32;fontFamily=JetBrains Mono;" vertex="1" parent="1">
          <mxGeometry x="280" y="720" width="80" height="80" as="geometry" />
        </mxCell>
        <mxCell id="uFG7PCId-pUoOMfq0wAy-47" value="" style="whiteSpace=wrap;html=1;aspect=fixed;strokeWidth=3;fillColor=#9c9c9c;fontSize=32;fontFamily=JetBrains Mono;" vertex="1" parent="1">
          <mxGeometry x="360" y="720" width="80" height="80" as="geometry" />
        </mxCell>
        <mxCell id="uFG7PCId-pUoOMfq0wAy-48" value="E" style="whiteSpace=wrap;html=1;aspect=fixed;strokeWidth=3;fillColor=#00ff07;fontSize=32;fontFamily=JetBrains Mono;" vertex="1" parent="1">
          <mxGeometry x="440" y="720" width="80" height="80" as="geometry" />
        </mxCell>
        <mxCell id="uFG7PCId-pUoOMfq0wAy-49" value="" style="whiteSpace=wrap;html=1;aspect=fixed;strokeWidth=3;fillColor=#9c9c9c;fontSize=32;fontFamily=JetBrains Mono;" vertex="1" parent="1">
          <mxGeometry x="520" y="720" width="80" height="80" as="geometry" />
        </mxCell>
        <mxCell id="uFG7PCId-pUoOMfq0wAy-50" value="O" style="whiteSpace=wrap;html=1;aspect=fixed;fillColor=#048dff;strokeWidth=3;fontSize=32;fontFamily=JetBrains Mono;" vertex="1" parent="1">
          <mxGeometry x="600" y="720" width="80" height="80" as="geometry" />
        </mxCell>
        <mxCell id="uFG7PCId-pUoOMfq0wAy-51" value="E" style="whiteSpace=wrap;html=1;aspect=fixed;strokeWidth=3;fillColor=#00ff07;fontSize=32;fontFamily=JetBrains Mono;" vertex="1" parent="1">
          <mxGeometry x="710" y="380" width="80" height="80" as="geometry" />
        </mxCell>
        <mxCell id="uFG7PCId-pUoOMfq0wAy-52" value="S" style="whiteSpace=wrap;html=1;aspect=fixed;strokeWidth=3;fillColor=#ffff04;fontSize=32;fontFamily=JetBrains Mono;" vertex="1" parent="1">
          <mxGeometry x="710" y="460" width="80" height="80" as="geometry" />
        </mxCell>
        <mxCell id="uFG7PCId-pUoOMfq0wAy-53" value="O" style="whiteSpace=wrap;html=1;aspect=fixed;fillColor=#048DFF;strokeWidth=3;fontSize=32;fontFamily=JetBrains Mono;" vertex="1" parent="1">
          <mxGeometry x="710" y="540" width="80" height="80" as="geometry" />
        </mxCell>
        <mxCell id="uFG7PCId-pUoOMfq0wAy-54" value="H" style="whiteSpace=wrap;html=1;aspect=fixed;strokeWidth=3;fillColor=#ff8e2f;fontSize=32;fontFamily=JetBrains Mono;" vertex="1" parent="1">
          <mxGeometry x="710" y="620" width="80" height="80" as="geometry" />
        </mxCell>
        <mxCell id="uFG7PCId-pUoOMfq0wAy-55" value="" style="whiteSpace=wrap;html=1;aspect=fixed;strokeWidth=3;fillColor=#9c9c9c;fontSize=32;fontFamily=JetBrains Mono;" vertex="1" parent="1">
          <mxGeometry x="710" y="700" width="80" height="80" as="geometry" />
        </mxCell>
        <mxCell id="uFG7PCId-pUoOMfq0wAy-57" value="Eden Region" style="text;html=1;align=left;verticalAlign=middle;whiteSpace=wrap;rounded=0;fontFamily=JetBrains Mono;fontStyle=0;fontSize=34;" vertex="1" parent="1">
          <mxGeometry x="810" y="405" width="240" height="30" as="geometry" />
        </mxCell>
        <mxCell id="uFG7PCId-pUoOMfq0wAy-58" value="Survivor Region" style="text;html=1;align=left;verticalAlign=middle;whiteSpace=wrap;rounded=0;fontFamily=JetBrains Mono;fontStyle=0;fontSize=34;" vertex="1" parent="1">
          <mxGeometry x="810" y="485" width="320" height="30" as="geometry" />
        </mxCell>
        <mxCell id="uFG7PCId-pUoOMfq0wAy-59" value="Old Region" style="text;html=1;align=left;verticalAlign=middle;whiteSpace=wrap;rounded=0;fontFamily=JetBrains Mono;fontStyle=0;fontSize=34;" vertex="1" parent="1">
          <mxGeometry x="810" y="565" width="230" height="30" as="geometry" />
        </mxCell>
        <mxCell id="uFG7PCId-pUoOMfq0wAy-60" value="Humongous Region" style="text;html=1;align=left;verticalAlign=middle;whiteSpace=wrap;rounded=0;fontFamily=JetBrains Mono;fontStyle=0;fontSize=34;" vertex="1" parent="1">
          <mxGeometry x="810" y="645" width="340" height="30" as="geometry" />
        </mxCell>
        <mxCell id="uFG7PCId-pUoOMfq0wAy-61" value="Free Region" style="text;html=1;align=left;verticalAlign=middle;whiteSpace=wrap;rounded=0;fontFamily=JetBrains Mono;fontStyle=0;fontSize=34;" vertex="1" parent="1">
          <mxGeometry x="810" y="725" width="240" height="30" as="geometry" />
        </mxCell>
        <mxCell id="uFG7PCId-pUoOMfq0wAy-63" value="G1 GC Heap" style="text;html=1;align=center;verticalAlign=middle;whiteSpace=wrap;rounded=0;fontFamily=JetBrains Mono;fontStyle=1;fontSize=44;fillColor=#f5f5f5;fontColor=#333333;strokeColor=#666666;" vertex="1" parent="1">
          <mxGeometry x="720" y="260" width="420" height="80" as="geometry" />
        </mxCell>
      </root>
    </mxGraphModel>
  </diagram>
</mxfile>
